{
	"asset":{
		"generator":"Khronos glTF Blender I/O v4.5.49",
		"version":"2.0"
	},
	"scene":0,
	"scenes":[
		{
			"name":"Scene",
			"nodes":[
				0
			]
		}
	],
	"nodes":[
		{
			"mesh":0,
			"name":"Cube"
		}
	],
	"meshes":[
		{
			"name":"Cube.001",
			"primitives":[
				{
					"attributes":{
						"POSITION":0,
						"NORMAL":1,
						"TEXCOORD_0":2
					},
					"indices":3
				}
			]
		}
	],
	"accessors":[
		{
			"bufferView":0,
			"componentType":5126,
			"count":1324,
			"max":[
				0.21236631274223328,
				0.2377641350030899,
				0.8716721534729004
			],
			"min":[
				-0.9291842579841614,
				-0.2377641350030899,
				-0.929796040058136
			],
			"type":"VEC3"
		},
		{
			"bufferView":1,
			"componentType":5126,
			"count":1324,
			"type":"VEC3"
		},
		{
			"bufferView":2,
			"componentType":5126,
			"count":1324,
			"type":"VEC2"
		},
		{
			"bufferView":3,
			"componentType":5123,
			"count":2208,
			"type":"SCALAR"
		}
	],
	"bufferViews":[
		{
			"buffer":0,
			"byteLength":15888,
			"byteOffset":0,
			"target":34962
		},
		{
			"buffer":0,
			"byteLength":15888,
			"byteOffset":15888,
			"target":34962
		},
		{
			"buffer":0,
			"byteLength":10592,
			"byteOffset":31776,
			"target":34962
		},
		{
			"buffer":0,
			"byteLength":4416,
			"byteOffset":42368,
			"target":34963
		}
	],
	"buffers":[
		{
			"byteLength":46784,
			"uri":"Macaroni2.bin"
		}
	]
}
